<?xml version="1.0" encoding="utf-8"?>
<!-- Generator: Adobe Illustrator 16.0.0, SVG Export Plug-In . SVG Version: 6.00 Build 0)  -->
<!DOCTYPE svg PUBLIC "-//W3C//DTD SVG 1.0//EN" "http://www.w3.org/TR/2001/REC-SVG-20010904/DTD/svg10.dtd">
<svg version="1.0" xmlns="http://www.w3.org/2000/svg" xmlns:xlink="http://www.w3.org/1999/xlink" x="0px" y="0px"
	 width="1424.929px" height="410.968px" viewBox="0 0 1424.929 410.968" enable-background="new 0 0 1424.929 410.968"
	 xml:space="preserve">
<g id="Calque_1">
	
		<line opacity="0.5" fill="none" stroke="#000000" stroke-width="6" stroke-linecap="round" stroke-miterlimit="10" x1="844.851" y1="169.559" x2="844.851" y2="155.059"/>
	
		<line opacity="0.5" fill="none" stroke="#000000" stroke-width="6" stroke-linecap="round" stroke-miterlimit="10" x1="1048.85" y1="169.128" x2="1048.85" y2="154.628"/>
	
		<line opacity="0.5" fill="none" stroke="#000000" stroke-width="6" stroke-linecap="round" stroke-miterlimit="10" x1="1048.85" y1="253.628" x2="1048.85" y2="239.128"/>
	
		<line opacity="0.5" fill="none" stroke="#000000" stroke-width="6" stroke-linecap="round" stroke-miterlimit="10" x1="844.851" y1="253.628" x2="844.851" y2="239.128"/>
	
		<line opacity="0.5" fill="none" stroke="#000000" stroke-width="6" stroke-linecap="round" stroke-miterlimit="10" x1="1252.851" y1="169.128" x2="1252.851" y2="154.628"/>
	
		<line opacity="0.5" fill="none" stroke="#000000" stroke-width="6" stroke-linecap="round" stroke-miterlimit="10" x1="1252.851" y1="253.628" x2="1252.851" y2="239.128"/>
	<g>
		<path opacity="0.7" fill="none" stroke="#000000" stroke-miterlimit="10" d="M1268.718,132.439
			c-0.027,0.022-0.053,0.041-0.082,0.063c-15.969,12.467-31.654,1.474-33.454,0.132c-21.525-19.198-51.639-31.131-84.973-31.131
			c-33.223,0-63.244,11.853-84.758,30.937c-0.027,0.022-0.053,0.041-0.08,0.063c-16.973,13.248-33.625,0-33.625,0l0.035,0.042
			c-21.518-19.146-51.59-31.042-84.871-31.042c-33.586,0-63.904,12.111-85.462,31.563c-0.078,0.063-0.152,0.119-0.236,0.184
			c-12.791,9.986-25.402,4.919-30.838,1.817c-21.667-20.62-52.9-33.563-87.623-33.563c-9.396,0-18.537,0.95-27.301,2.742v199.77
			c8.765,1.791,17.905,2.741,27.301,2.741c34.723,0,65.956-12.943,87.623-33.564c5.436-3.1,18.047-8.166,30.838,1.818
			c0.084,0.064,0.158,0.123,0.238,0.184c21.558,19.451,51.874,31.563,85.46,31.563c33.695,0,64.105-12.188,85.674-31.752
			c3.496-2.385,17.424-10.516,31.809-0.127c21.578,19.637,52.045,31.879,85.816,31.879c33.748,0,64.201-12.229,85.78-31.848
			c3.715-2.496,17.469-10.287,31.668-0.031c15.639,14.23,35.947,24.572,58.793,29.189V104.187
			C1304.117,108.704,1284.208,118.696,1268.718,132.439z"/>
	</g>
	
		<line opacity="0.5" fill="none" stroke="#000000" stroke-width="6" stroke-linecap="round" stroke-miterlimit="10" x1="233.85" y1="169.373" x2="233.85" y2="154.873"/>
	
		<line opacity="0.5" fill="none" stroke="#000000" stroke-width="6" stroke-linecap="round" stroke-miterlimit="10" x1="437.85" y1="168.942" x2="437.85" y2="154.442"/>
	
		<line opacity="0.5" fill="none" stroke="#000000" stroke-width="6" stroke-linecap="round" stroke-miterlimit="10" x1="437.85" y1="253.441" x2="437.85" y2="238.941"/>
	
		<line opacity="0.5" fill="none" stroke="#000000" stroke-width="6" stroke-linecap="round" stroke-miterlimit="10" x1="233.851" y1="253.441" x2="233.851" y2="238.941"/>
	
		<line opacity="0.5" fill="none" stroke="#000000" stroke-width="6" stroke-linecap="round" stroke-miterlimit="10" x1="641.851" y1="168.942" x2="641.851" y2="154.442"/>
	
		<line opacity="0.5" fill="none" stroke="#000000" stroke-width="6" stroke-linecap="round" stroke-miterlimit="10" x1="641.851" y1="253.441" x2="641.851" y2="238.941"/>
	<g>
		<path opacity="0.7" fill="none" stroke="#000000" stroke-miterlimit="10" d="M657.718,132.252
			c-0.027,0.022-0.053,0.041-0.082,0.063c-15.969,12.467-31.654,1.474-33.454,0.132c-21.525-19.198-51.639-31.131-84.973-31.131
			c-33.223,0-63.244,11.853-84.758,30.937c-0.027,0.022-0.053,0.041-0.08,0.063c-16.973,13.248-33.625,0-33.625,0l0.035,0.042
			c-21.518-19.146-51.59-31.042-84.871-31.042c-33.586,0-63.904,12.111-85.461,31.563c-0.079,0.063-0.153,0.119-0.236,0.184
			c-12.792,9.986-25.403,4.919-30.838,1.817c-21.667-20.62-52.9-33.563-87.623-33.563c-9.397,0-18.537,0.95-27.301,2.742v199.77
			c8.765,1.791,17.905,2.741,27.301,2.741c34.723,0,65.956-12.943,87.623-33.564c5.436-3.1,18.046-8.166,30.838,1.818
			c0.083,0.064,0.157,0.123,0.237,0.184c21.558,19.451,51.875,31.563,85.46,31.563c33.695,0,64.105-12.188,85.674-31.752
			c3.496-2.385,17.424-10.516,31.809-0.127c21.578,19.637,52.045,31.879,85.816,31.879c33.748,0,64.201-12.229,85.78-31.848
			c3.715-2.496,17.469-10.287,31.668-0.031c15.639,14.23,35.947,24.572,58.793,29.189V104
			C693.116,108.517,673.208,118.509,657.718,132.252z"/>
	</g>
</g>
<g id="Calque_2">
	<g>
		<path opacity="0.7" fill="none" stroke="#FF0000" stroke-width="0.028" stroke-miterlimit="10" d="M1268.718,117.438
			c-0.027,0.022-0.053,0.041-0.082,0.063c-15.969,12.467-31.654,1.475-33.453,0.133c-21.525-19.198-51.639-31.132-84.974-31.132
			c-33.223,0-63.244,11.853-84.758,30.937c-0.027,0.022-0.053,0.041-0.08,0.063c-16.973,13.248-33.625,0-33.625,0l0.035,0.043
			c-21.518-19.146-51.59-31.042-84.871-31.042c-33.586,0-63.904,12.11-85.461,31.563c-0.079,0.063-0.153,0.118-0.236,0.184
			c-12.792,9.985-25.403,4.919-30.839,1.817c-21.666-20.62-52.899-33.563-87.623-33.563c-9.396,0-18.537,0.95-27.301,2.741v229.771
			c8.765,1.791,17.904,2.741,27.301,2.741c34.724,0,65.957-12.943,87.623-33.564c5.436-3.1,18.047-8.166,30.839,1.818
			c0.083,0.064,0.157,0.123,0.237,0.184c21.558,19.451,51.874,31.563,85.46,31.563c33.695,0,64.105-12.188,85.674-31.752
			c3.496-2.385,17.424-10.516,31.809-0.127c21.578,19.637,52.045,31.879,85.816,31.879c33.749,0,64.202-12.229,85.78-31.848
			c3.715-2.496,17.469-10.287,31.668-0.031c15.639,14.23,35.947,24.572,58.793,29.189V89.187
			C1304.117,93.704,1284.208,103.696,1268.718,117.438z"/>
	</g>
	<g>
		<path opacity="0.7" fill="none" stroke="#FF0000" stroke-width="0.028" stroke-miterlimit="10" d="M657.718,117.252
			c-0.027,0.022-0.053,0.041-0.082,0.063c-15.969,12.467-31.654,1.475-33.453,0.133c-21.525-19.198-51.639-31.132-84.974-31.132
			c-33.223,0-63.244,11.853-84.758,30.937c-0.027,0.022-0.053,0.041-0.08,0.063c-16.973,13.248-33.625,0-33.625,0l0.035,0.043
			c-21.518-19.146-51.59-31.042-84.871-31.042c-33.586,0-63.904,12.11-85.461,31.563c-0.079,0.063-0.153,0.118-0.236,0.184
			c-12.792,9.985-25.403,4.919-30.838,1.817c-21.667-20.62-52.9-33.563-87.623-33.563c-9.397,0-18.537,0.95-27.301,2.741v229.771
			c8.765,1.791,17.905,2.741,27.301,2.741c34.723,0,65.956-12.943,87.623-33.564c5.436-3.1,18.046-8.166,30.838,1.818
			c0.083,0.064,0.157,0.123,0.237,0.184c21.558,19.451,51.874,31.563,85.46,31.563c33.695,0,64.105-12.188,85.674-31.752
			c3.496-2.385,17.424-10.516,31.809-0.127c21.578,19.637,52.045,31.879,85.816,31.879c33.749,0,64.202-12.229,85.78-31.848
			c3.715-2.496,17.469-10.287,31.668-0.031c15.639,14.23,35.947,24.572,58.793,29.189V89
			C693.116,93.518,673.208,103.51,657.718,117.252z"/>
	</g>
</g>
</svg>
